
        <svg xmlns="http://www.w3.org/2000/svg" xmlns:xlink="http://www.w3.org/1999/xlink" version="1.1" width="3260.8695652173915" height="1201.5158921404986" viewBox="0 0 3260.8695652173915 1201.5158921404986">
			
			<g transform="scale(13.043478260869565) translate(10, 10)">
				<defs id="SvgjsDefs2223"/><g id="SvgjsG2224" featureKey="symbolFeature-0" transform="matrix(1.2,0,0,1.2,-7.199999999999999,-1.1859985351562496)" fill="#000"><g xmlns="http://www.w3.org/2000/svg"><path d="M6,42.0350037c0,1.7700195,1.4400024,3.210022,3.210022,3.210022h15.4599609v7.0999756H23.710022   c-0.5499878,0-1,0.4500122-1,1c0,0.5599976,0.4500122,1,1,1h14.5800171c0.5499878,0,1-0.4400024,1-1c0-0.5499878-0.4500122-1-1-1   h-0.9700317v-7.0999756h15.4700317C54.5599976,45.2450256,56,43.8050232,56,42.0350037v-2.6900024H6V42.0350037z"/><path d="M52.7900391,7.6549988H9.210022C7.4400024,7.6549988,6,9.0950012,6,10.8650208v26.4799805h50V10.8650208   C56,9.0950012,54.5599976,7.6549988,52.7900391,7.6549988z M24.5200195,19.6750183l-10.6500244,5.3400269v0.0599976   l10.6500244,5.3299561v1.8800049l-12.6300049-6.5100098v-1.4699707l12.6300049-6.5100098V19.6750183z M28.1300049,33.3750305   h-1.8300171l7.6000366-19.75h1.8599854L28.1300049,33.3750305z M50.1099854,25.8050232l-12.6300049,6.4799805v-1.8800049   l10.7300415-5.3299561v-0.0599976l-10.7300415-5.3400269v-1.8800049l12.6300049,6.4899902V25.8050232z"/></g></g><g id="SvgjsG2225" featureKey="nameFeature-0" transform="matrix(2.5240262177369304,0,0,2.5240262177369304,72.78860707536896,-28.844830312038983)" fill="#000"><path d="M24 11.428999999999998 l7.4286 0 l0 28.571 l-7.4286 0 l0 -16 l-5.0286 9.7143 l-3.7143 0 l-4.9714 -9.7143 l0 16 l-7.4286 0 l0 -28.571 l7.4286 0 l6.8571 12.971 z M62.28585714285714 17.714 l-16.857 0 l0 4.8571 l14.571 0 l0 6.2857 l-14.571 0 l0 11.143 l-7.4286 0 l0 -24.286 l4.2857 -4.2857 l20 0 l0 6.2857 z"/></g>
			</g>
		</svg>
	